<svg height="512" viewBox="0 0 64 64" width="512" xmlns="http://www.w3.org/2000/svg"><g id="Blogging"><rect fill="#57a4ff" height="36" rx="4" width="54" x="5" y="17"/><path d="m55 17h-2a4 4 0 0 1 4 4v28a4 4 0 0 1 -4 4h2a4 4 0 0 0 4-4v-28a4 4 0 0 0 -4-4z" fill="#2488ff"/><path d="m9 21h46v28h-46z" fill="#ffcd00"/><path d="m13 9h38v40h-38z" fill="#ffdaaa"/><path d="m15 49h36v-36a36 36 0 0 1 -36 36z" fill="#ffc477"/><path d="m7 61h50a4 4 0 0 0 4-4v-4h-58v4a4 4 0 0 0 4 4z" fill="#005ece"/><path d="m59 53v4a4 4 0 0 1 -4 4h2a4 4 0 0 0 4-4v-4z" fill="#004fac"/><path d="m27 55a2 2 0 0 0 2 2h6a2 2 0 0 0 2-2v-2h-10z" fill="#ffcd00"/><path d="m49 3h-34a2 2 0 0 0 -2 2v4h38v-4a2 2 0 0 0 -2-2z" fill="#005ece"/><path d="m17 13h30v4h-30z" fill="#ed1c24"/><path d="m17 33h14v12h-14z" fill="#ed1c24"/><path d="m61 52h-2.026a4.948 4.948 0 0 0 1.026-3v-28a5.006 5.006 0 0 0 -5-5h-3v-11a3 3 0 0 0 -3-3h-34a3 3 0 0 0 -3 3v11h-3a5.006 5.006 0 0 0 -5 5v28a4.948 4.948 0 0 0 1.026 3h-2.026a1 1 0 0 0 -1 1v4a5.006 5.006 0 0 0 5 5h50a5.006 5.006 0 0 0 5-5v-4a1 1 0 0 0 -1-1zm-51-4v-26h2v26zm4-38h36v38h-36zm38 12h2v26h-2zm-38-17a1 1 0 0 1 1-1h34a1 1 0 0 1 1 1v3h-36zm-8 44v-28a3 3 0 0 1 3-3h3v2h-3a1 1 0 0 0 -1 1v28a1 1 0 0 0 1 1h46a1 1 0 0 0 1-1v-28a1 1 0 0 0 -1-1h-3v-2h3a3 3 0 0 1 3 3v28a3 3 0 0 1 -3 3h-46a3 3 0 0 1 -3-3zm22 5h8v1a1 1 0 0 1 -1 1h-6a1 1 0 0 1 -1-1zm32 3a3 3 0 0 1 -3 3h-50a3 3 0 0 1 -3-3v-3h22v1a3 3 0 0 0 3 3h6a3 3 0 0 0 3-3v-1h22z"/><path d="m16 5h2v2h-2z"/><path d="m20 5h2v2h-2z"/><path d="m24 5h2v2h-2z"/><path d="m47 12h-30a1 1 0 0 0 -1 1v4a1 1 0 0 0 1 1h30a1 1 0 0 0 1-1v-4a1 1 0 0 0 -1-1zm-1 4h-28v-2h28z"/><path d="m20 30a1 1 0 0 0 1-1v-7h2a1 1 0 0 0 0-2h-6a1 1 0 0 0 0 2h2v7a1 1 0 0 0 1 1z"/><path d="m47 20h-20a1 1 0 0 0 0 2h20a1 1 0 0 0 0-2z"/><path d="m47 24h-20a1 1 0 0 0 0 2h20a1 1 0 0 0 0-2z"/><path d="m47 28h-20a1 1 0 0 0 0 2h20a1 1 0 0 0 0-2z"/><path d="m47 34h-12a1 1 0 0 0 0 2h12a1 1 0 0 0 0-2z"/><path d="m47 38h-12a1 1 0 0 0 0 2h12a1 1 0 0 0 0-2z"/><path d="m47 42h-12a1 1 0 0 0 0 2h12a1 1 0 0 0 0-2z"/><path d="m31 32h-14a1 1 0 0 0 -1 1v12a1 1 0 0 0 1 1h14a1 1 0 0 0 1-1v-12a1 1 0 0 0 -1-1zm-1 12h-12v-10h12z"/></g></svg>