<svg id="Layer_1" enable-background="new 0 0 256 256" height="512" viewBox="0 0 256 256" width="512" xmlns="http://www.w3.org/2000/svg"><g><g><g><path d="m200.655 79.94c0-38.65-31.33-69.99-69.99-69.99-38.65 0-69.98 31.34-69.98 69.99 0 20.024 8.423 38.072 21.903 50.83 12.875 12.683 20.867 30.317 20.867 49.823h54.43c0-19.297 7.819-36.762 20.447-49.424 13.727-12.779 22.323-30.997 22.323-51.229z" fill="#f8af23"/></g></g><g><g><path d="m130.665 9.95c-1.35 0-2.689.047-4.02.123 36.787 2.085 65.969 32.567 65.969 69.867 0 20.232-8.595 38.45-22.323 51.229-12.628 12.662-20.447 30.127-20.447 49.424h8.042c0-19.297 7.819-36.762 20.447-49.424 13.728-12.779 22.323-30.997 22.323-51.229-.001-38.65-31.331-69.99-69.991-69.99z" fill="#f8d323"/></g></g><g><g><path d="m68.719 79.94c0-37.301 29.184-67.784 65.964-69.867-1.33-.075-2.668-.123-4.018-.123-38.65 0-69.98 31.34-69.98 69.99 0 20.024 8.423 38.072 21.903 50.83 12.875 12.683 20.867 30.317 20.867 49.823h8.034c0-19.506-7.992-37.14-20.867-49.823-13.48-12.758-21.903-30.806-21.903-50.83z" fill="#f87023"/></g></g><g><g><circle cx="202.515" cy="169.818" fill="#f46275" r="27.914"/></g></g><g><g><path d="m198.5 197.448c1.31.19 2.65.29 4.02.29 15.42 0 27.91-12.5 27.91-27.92s-12.49-27.91-27.91-27.91c-1.37 0-2.71.1-4.02.29 13.52 1.94 23.9 13.56 23.9 27.62 0 14.059-10.38 25.69-23.9 27.63z" fill="#f48875"/></g></g><g><g><path d="m168.374 196.26c0 2.101-1.703 3.804-3.804 3.804h-67.801c-2.101 0-3.804-1.703-3.804-3.804 0-2.101 1.703-3.804 3.804-3.804h67.801c2.101 0 3.804 1.703 3.804 3.804z" fill="#63bce7"/></g></g><g><g><path d="m156.544 200.068h8.03c2.1 0 3.8-1.71 3.8-3.81 0-1.05-.43-2-1.11-2.69-.69-.68-1.64-1.11-2.69-1.11h-8.03c1.05 0 2 .43 2.69 1.11.69.69 1.11 1.64 1.11 2.69 0 2.099-1.7 3.81-3.8 3.81z" fill="#63e2e7"/></g></g><g><g><path d="m104.796 200.068h-8.03c-2.1 0-3.8-1.71-3.8-3.81 0-1.05.43-2 1.11-2.69.69-.68 1.64-1.11 2.69-1.11h8.03c-1.05 0-2 .43-2.69 1.11-.69.69-1.11 1.64-1.11 2.69-.001 2.099 1.7 3.81 3.8 3.81z" fill="#6377e7"/></g></g><g><g><g><path d="m209.964 169.81v5.092c0 .397-.149.741-.446 1.032-.298.292-.651.438-1.059.438h-4.48v3.587c0 .408-.146.755-.437 1.041-.292.286-.636.429-1.033.429-.42 0-.776-.143-1.067-.429-.292-.286-.438-.633-.438-1.041v-3.622h-4.445c-.397 0-.741-.143-1.032-.429-.292-.286-.438-.633-.438-1.041s.143-.755.429-1.041.633-.429 1.041-.429h10.395v-2.117h-10.36c-.408 0-.755-.14-1.041-.42s-.429-.63-.429-1.05v-5.075c0-.408.143-.755.429-1.041s.633-.429 1.041-.429h4.41v-3.587c0-.397.137-.741.411-1.033.274-.291.644-.437 1.111-.437.397 0 .738.143 1.024.429s.429.633.429 1.041v3.587h4.515c.408 0 .761.146 1.059.437.298.292.446.636.446 1.033 0 .408-.149.761-.446 1.059-.298.298-.651.446-1.059.446h-10.395v2.1h10.36c.408 0 .761.146 1.059.438.297.291.446.635.446 1.032z"/></g></g></g><g><g><path d="m130.645 110.077c-.901 0-1.801-.243-2.597-.728-1.492-.906-2.403-2.526-2.403-4.272v-28.37l-39.425 20.589c-2.449 1.279-5.47.331-6.746-2.117-1.278-2.447-.331-5.468 2.117-6.746l46.739-24.409c1.551-.811 3.411-.751 4.905.155 1.496.906 2.409 2.527 2.409 4.276v28.396l39.486-20.487c2.452-1.272 5.469-.315 6.741 2.136 1.271 2.451.315 5.469-2.136 6.741l-46.789 24.275c-.722.375-1.512.561-2.301.561z" fill="#63bce7"/></g></g><g><g><path d="m164.57 200.063h-2.002-29.896c-1.101 0-2.903 0-4.004 0h-29.897-2.002l.445 1.952 5.757 29.89c.245 1.074 1.346 1.952 2.447 1.952h23.25 4.004 23.25c1.101 0 2.202-.878 2.447-1.952l4.293-23.469z" fill="#f46275"/></g></g><g><g><path d="m113.449 233.857h-8.03c-1.1 0-2.2-.88-2.45-1.95l-5.75-29.89-.45-1.95h8.03l.45 1.95 5.75 29.89c.25 1.071 1.35 1.95 2.45 1.95z" fill="#f43075"/></g></g><g><g><path d="m147.89 233.857h8.03c1.1 0 2.2-.88 2.45-1.95l5.75-29.89.45-1.95h-8.03l-.45 1.95-5.75 29.89c-.25 1.071-1.35 1.95-2.45 1.95z" fill="#f48875"/></g></g><g><g><path d="m130.67 205.027c-2.101 0-3.804-1.703-3.804-3.804v-35.051c0-2.101 1.703-3.804 3.804-3.804 2.101 0 3.804 1.703 3.804 3.804v35.051c0 2.101-1.703 3.804-3.804 3.804z" fill="#f46275"/></g></g><g><g><circle cx="56.066" cy="169.818" fill="#63bce7" r="27.914"/></g></g><g><g><path d="m60.082 197.448c-1.31.19-2.65.29-4.02.29-15.42 0-27.91-12.5-27.91-27.92s12.49-27.91 27.91-27.91c1.37 0 2.71.1 4.02.29-13.52 1.94-23.9 13.56-23.9 27.62-.001 14.059 10.38 25.69 23.9 27.63z" fill="#6377e7"/></g></g><g><g><g><path d="m81.535 131.838c13.168 12.972 20.42 30.287 20.42 48.755 0 .829.672 1.5 1.5 1.5h21.911v8.862h-28.596c-2.925 0-5.304 2.379-5.304 5.304 0 2.498 1.742 4.585 4.071 5.144l.204.895 5.768 29.94c.009.041.028.078.039.118h-57.825c-.828 0-1.5.671-1.5 1.5s.672 1.5 1.5 1.5h61.695 50.504 56.66c.828 0 1.5-.671 1.5-1.5s-.672-1.5-1.5-1.5h-52.796c.017-.062.045-.119.059-.182l4.28-23.406 1.679-7.366c2.329-.559 4.07-2.646 4.07-5.144 0-2.924-2.379-5.304-5.304-5.304h-28.597v-8.862h21.911c.828 0 1.5-.671 1.5-1.5 0-18.251 7.106-35.428 19.97-48.326 14.49-13.489 22.801-32.562 22.801-52.328 0-39.419-32.07-71.49-71.49-71.49-39.414 0-71.48 32.07-71.48 71.49 0 19.829 7.945 38.268 22.35 51.9zm12.931 64.422c0-1.271 1.033-2.304 2.304-2.304h28.597v4.607h-28.597c-1.271 0-2.304-1.033-2.304-2.303zm33.9 2.303v-4.607h4.607v4.607zm4.573 3c-.166 1.108-1.115 1.963-2.269 1.963s-2.103-.855-2.269-1.963zm28.248 6.603-4.279 23.405c-.089.389-.586.786-.985.786h-50.504c-.399 0-.896-.396-.975-.735l-5.767-29.939-.027-.119h26.751c.179 2.763 2.461 4.963 5.269 4.963s5.09-2.2 5.269-4.963h26.751zm3.383-14.21c1.271 0 2.304 1.033 2.304 2.304s-1.033 2.304-2.304 2.304h-28.597v-4.607h28.597zm-31.596-3h-4.607v-8.862h4.607zm0-11.862h-4.607v-12.922c0-1.271 1.033-2.304 2.304-2.304s2.304 1.033 2.304 2.304v12.922zm-2.309-167.644c37.766 0 68.49 30.725 68.49 68.49 0 18.936-7.962 37.208-21.886 50.17-13.113 13.148-20.49 30.493-20.869 48.983h-20.427v-12.922c0-2.924-2.379-5.304-5.304-5.304s-5.304 2.379-5.304 5.304v12.922h-20.427c-.382-18.714-7.912-36.205-21.32-49.413-13.821-13.081-21.433-30.746-21.433-49.74 0-37.765 30.719-68.49 68.48-68.49z" fill="#231f20"/></g></g><g><g><path d="m173.101 169.818c0 16.219 13.195 29.415 29.415 29.415 16.219 0 29.414-13.195 29.414-29.415s-13.195-29.415-29.414-29.415c-16.22.001-29.415 13.196-29.415 29.415zm29.415-26.414c14.564 0 26.414 11.85 26.414 26.415s-11.85 26.415-26.414 26.415c-14.565 0-26.415-11.85-26.415-26.415s11.849-26.415 26.415-26.415z" fill="#231f20"/></g></g><g><g><path d="m86.914 98.625 37.23-19.443v25.895c0 2.255 1.197 4.384 3.123 5.554 1.018.619 2.186.946 3.377.946 1.037 0 2.071-.252 2.993-.73l46.79-24.275c3.181-1.651 4.426-5.583 2.775-8.764s-5.584-4.427-8.763-2.776l-37.296 19.351v-25.928c0-2.259-1.2-4.389-3.131-5.559-1.934-1.172-4.378-1.248-6.378-.202l-46.738 24.409c-1.539.804-2.673 2.159-3.193 3.815s-.363 3.416.44 4.954c.803 1.54 2.157 2.674 3.814 3.194 1.656.518 3.416.363 4.957-.441zm-6.111-4.141c-.433-.829-.517-1.776-.236-2.668.279-.892.89-1.622 1.719-2.054l46.74-24.409c1.078-.564 2.393-.522 3.433.109 1.04.63 1.687 1.777 1.687 2.993v28.396c0 .524.273 1.01.721 1.282.448.271 1.005.291 1.47.05l39.486-20.487c1.711-.889 3.829-.219 4.72 1.495.888 1.713.217 3.83-1.495 4.719l-46.789 24.275c-1.066.553-2.404.508-3.431-.116-1.037-.63-1.682-1.776-1.682-2.99v-28.37c0-.524-.274-1.011-.723-1.283-.238-.145-.508-.217-.777-.217-.238 0-.477.057-.694.17l-39.427 20.587c-.828.433-1.778.517-2.669.238-.891-.28-1.621-.89-2.053-1.72z" fill="#231f20"/></g></g><g><g><path d="m35.414 233.857c0-.829-.672-1.5-1.5-1.5h-8.344c-.828 0-1.5.671-1.5 1.5s.672 1.5 1.5 1.5h8.344c.828 0 1.5-.671 1.5-1.5z" fill="#231f20"/></g></g><g><g><path d="m229.723 232.357h-8.346c-.828 0-1.5.671-1.5 1.5s.672 1.5 1.5 1.5h8.346c.828 0 1.5-.671 1.5-1.5s-.672-1.5-1.5-1.5z" fill="#231f20"/></g></g><g><g><path d="m202.516 244.547h-148.727c-.828 0-1.5.671-1.5 1.5s.672 1.5 1.5 1.5h148.727c.828 0 1.5-.671 1.5-1.5s-.672-1.5-1.5-1.5z" fill="#231f20"/></g></g><g><g><path d="m44.779 244.547h-8.344c-.828 0-1.5.671-1.5 1.5s.672 1.5 1.5 1.5h8.344c.828 0 1.5-.671 1.5-1.5s-.672-1.5-1.5-1.5z" fill="#231f20"/></g></g><g><g><path d="m220.074 244.547h-8.346c-.828 0-1.5.671-1.5 1.5s.672 1.5 1.5 1.5h8.346c.828 0 1.5-.671 1.5-1.5s-.672-1.5-1.5-1.5z" fill="#231f20"/></g></g><g><g><path d="m119.503 211.143c-.828 0-1.5.671-1.5 1.5v14.125c0 .829.672 1.5 1.5 1.5s1.5-.671 1.5-1.5v-14.125c0-.829-.672-1.5-1.5-1.5z" fill="#231f20"/></g></g><g><g><path d="m130.67 211.143c-.828 0-1.5.671-1.5 1.5v14.125c0 .829.672 1.5 1.5 1.5s1.5-.671 1.5-1.5v-14.125c0-.829-.672-1.5-1.5-1.5z" fill="#231f20"/></g></g><g><g><path d="m141.837 228.268c.828 0 1.5-.671 1.5-1.5v-14.125c0-.829-.672-1.5-1.5-1.5s-1.5.671-1.5 1.5v14.125c0 .828.672 1.5 1.5 1.5z" fill="#231f20"/></g></g><g><g><path d="m56.066 199.233c16.219 0 29.414-13.195 29.414-29.415s-13.195-29.415-29.414-29.415c-16.22 0-29.415 13.195-29.415 29.415s13.196 29.415 29.415 29.415zm0-55.829c14.564 0 26.414 11.85 26.414 26.415s-11.85 26.415-26.414 26.415c-14.565 0-26.415-11.85-26.415-26.415s11.85-26.415 26.415-26.415z" fill="#231f20"/></g></g></g><g><g><g><path d="m63.514 169.81v5.092c0 .397-.149.741-.446 1.032-.298.292-.651.438-1.059.438h-4.48v3.587c0 .408-.146.755-.437 1.041-.292.286-.636.429-1.033.429-.42 0-.776-.143-1.067-.429-.292-.286-.438-.633-.438-1.041v-3.622h-4.444c-.397 0-.741-.143-1.032-.429-.292-.286-.438-.633-.438-1.041s.143-.755.429-1.041.633-.429 1.041-.429h10.395v-2.117h-10.36c-.408 0-.755-.14-1.041-.42s-.429-.63-.429-1.05v-5.075c0-.408.143-.755.429-1.041s.633-.429 1.041-.429h4.41v-3.587c0-.397.137-.741.411-1.033.274-.291.644-.437 1.111-.437.397 0 .738.143 1.024.429s.429.633.429 1.041v3.587h4.515c.408 0 .761.146 1.059.437.298.292.446.636.446 1.033 0 .408-.149.761-.446 1.059s-.651.446-1.059.446h-10.395v2.1h10.36c.408 0 .761.146 1.059.438.297.291.445.635.445 1.032z"/></g></g></g></g></svg>