<svg height="414pt" viewBox="0 0 414 414" width="414pt" xmlns="http://www.w3.org/2000/svg"><path d="m414 207c0 114.324219-92.675781 207-207 207s-207-92.675781-207-207 92.675781-207 207-207 207 92.675781 207 207zm0 0" fill="#f0c48a"/><path d="m123.925781 398.667969-14.789062-73.203125-70.230469 25.398437 80.894531-143.875 85.019531 47.804688zm0 0" fill="#fd919e"/><path d="m290.074219 398.667969 14.789062-73.203125 70.230469 25.398437-80.894531-143.875-85.019531 47.804688zm0 0" fill="#fd919e"/><path d="m123.929688 404.667969c-.3125 0-.625-.023438-.9375-.074219-2.480469-.390625-4.453126-2.28125-4.945313-4.738281l-13.414063-66.382813-63.6875 23.035156c-2.355468.851563-4.996093.144532-6.617187-1.765624-1.621094-1.914063-1.882813-4.632813-.652344-6.820313l80.894531-143.871094c.78125-1.390625 2.078126-2.410156 3.613282-2.839843 1.53125-.429688 3.171875-.230469 4.558594.550781l85.019531 47.804687c2.890625 1.621094 3.914062 5.28125 2.289062 8.167969l-80.894531 143.875c-1.074219 1.90625-3.085938 3.058594-5.226562 3.058594zm-14.792969-85.203125c1.019531 0 2.03125.261718 2.9375.769531 1.523437.855469 2.597656 2.332031 2.941406 4.042969l11.59375 57.375 70.039063-124.566406-74.558594-41.925782-70.039063 124.570313 55.042969-19.910157c.664062-.238281 1.351562-.355468 2.042969-.355468zm0 0" fill="#4c4372"/><path d="m290.070312 404.667969c-2.140624 0-4.152343-1.152344-5.226562-3.0625l-80.894531-143.871094c-1.625-2.890625-.601563-6.546875 2.289062-8.171875l85.019531-47.804688c1.386719-.78125 3.027344-.976562 4.558594-.546874 1.535156.429687 2.832032 1.449218 3.613282 2.835937l80.671874 143.476563c.640626.957031 1.011719 2.105468 1.011719 3.339843 0 3.292969-2.648437 5.964844-5.933593 6-.730469-.011719-1.433594-.105469-2.125-.355469l-63.6875-23.035156-13.414063 66.382813c-.496094 2.457031-2.46875 4.347656-4.945313 4.738281-.3125.050781-.625.074219-.9375.074219zm-72.71875-147.585938 70.039063 124.570313 11.59375-57.375c.34375-1.710938 1.417969-3.1875 2.941406-4.042969 1.519531-.855469 3.339844-1.003906 4.980469-.414063l55.042969 19.910157-70.039063-124.570313zm0 0" fill="#4c4372"/><path d="m328 224.960938-120.5 69.855468-120.5-69.855468v-139.714844l120.5-69.859375 120.5 69.859375zm0 0" fill="#d3e6f8"/><path d="m297 242.503906 31-17.542968v-139.714844l-31-17.542969zm0 0" fill="#a4cff2"/><path d="m302.105469 155.101562c0 52.640626-42.671875 95.3125-95.3125 95.3125-52.636719 0-95.308594-42.671874-95.308594-95.3125 0-52.636718 42.671875-95.308593 95.308594-95.308593 52.640625 0 95.3125 42.671875 95.3125 95.308593zm0 0" fill="#a4cff2"/><path d="m206.792969 90.9375 20.851562 42.242188 46.617188 6.773437-33.734375 32.886719 7.964844 46.429687-41.699219-21.921875-41.695313 21.921875 7.960938-46.429687-33.734375-32.886719 46.621093-6.773437zm0 0" fill="#fff"/><g fill="#4c4372"><path d="m206.792969 256.414062c-55.859375 0-101.308594-45.449218-101.308594-101.3125 0-55.863281 45.445313-101.308593 101.308594-101.308593s101.3125 45.445312 101.3125 101.308593c0 55.863282-45.449219 101.3125-101.3125 101.3125zm0-190.621093c-49.242188 0-89.308594 40.0625-89.308594 89.308593 0 49.246094 40.0625 89.3125 89.308594 89.3125 49.246093 0 89.3125-40.0625 89.3125-89.3125 0-49.246093-40.066407-89.308593-89.3125-89.308593zm0 0"/><path d="m207.5 300.816406c-1.039062 0-2.078125-.269531-3.007812-.808594l-120.5-69.855468c-1.851563-1.074219-2.992188-3.050782-2.992188-5.191406v-139.714844c0-2.140625 1.140625-4.117188 2.992188-5.191406l120.5-69.855469c1.859374-1.082031 4.15625-1.082031 6.015624 0l120.5 69.855469c1.851563 1.074218 2.992188 3.050781 2.992188 5.191406v139.714844c0 2.140624-1.140625 4.117187-2.992188 5.191406l-120.5 69.855468c-.929687.542969-1.96875.808594-3.007812.808594zm-114.5-79.3125 114.5 66.378906 114.5-66.378906v-132.800781l-114.5-66.378906-114.5 66.378906zm0 0"/><path d="m165.097656 225.269531c-1.242187 0-2.480468-.386719-3.527344-1.144531-1.847656-1.34375-2.773437-3.617188-2.386718-5.871094l7.429687-43.320312-31.476562-30.679688c-1.632813-1.597656-2.222657-3.980468-1.519531-6.152344.707031-2.171874 2.585937-3.753906 4.84375-4.082031l43.5-6.324219 19.453124-39.414062c1.011719-2.046875 3.097657-3.34375 5.378907-3.34375 2.285156 0 4.371093 1.296875 5.382812 3.34375l19.453125 39.414062 43.5 6.324219c2.257813.328125 4.136719 1.910157 4.839844 4.082031.707031 2.171876.117188 4.554688-1.515625 6.152344l-31.476563 30.679688 7.429688 43.320312c.386719 2.253906-.539062 4.527344-2.386719 5.871094-1.847656 1.339844-4.296875 1.519531-6.320312.453125l-38.90625-20.453125-38.902344 20.453125c-.878906.464844-1.835937.691406-2.792969.691406zm41.695313-33.921875c.960937 0 1.917969.230469 2.792969.6875l30.9375 16.265625-5.90625-34.449219c-.335938-1.945312.3125-3.929687 1.726562-5.3125l25.027344-24.394531-34.589844-5.027343c-1.953125-.28125-3.644531-1.507813-4.519531-3.28125l-15.46875-31.34375-15.46875 31.34375c-.871094 1.773437-2.5625 3-4.515625 3.28125l-34.589844 5.027343 25.027344 24.394531c1.414062 1.382813 2.058594 3.367188 1.726562 5.3125l-5.90625 34.449219 30.9375-16.265625c.871094-.457031 1.832032-.6875 2.789063-.6875zm0 0"/></g></svg>