<svg version="1.1" id="Capa_1" xmlns="http://www.w3.org/2000/svg" xmlns:xlink="http://www.w3.org/1999/xlink" x="0px" y="0px" viewBox="0 0 512 512" style="enable-background:new 0 0 512 512;" xml:space="preserve">
<g>
	<g>
		<path style="fill:#FFFFFF;" d="M51.238,476.534V35.466C51.238,21.402,62.639,10,76.704,10h358.592&#10;&#9;&#9;&#9;c14.065,0,25.466,11.402,25.466,25.466v441.067c0,14.065-11.402,25.466-25.466,25.466H76.704&#10;&#9;&#9;&#9;C62.639,502,51.238,490.598,51.238,476.534z"/>
		<path style="fill:#D2DCFD;" d="M143.068,202.915c0-70.103,18.347-135.921,50.5-192.915H76.704&#10;&#9;&#9;&#9;c-14.065,0-25.466,11.402-25.466,25.466v441.068c0,14.065,11.402,25.466,25.466,25.466h204.304&#10;&#9;&#9;&#9;C196.587,429.883,143.068,322.649,143.068,202.915z"/>
		
			<rect x="144.404" y="48.897" transform="matrix(-1.836970e-16 1 -1 -1.836970e-16 465.6596 -46.3404)" style="fill:#FD6050;" width="223.192" height="321.524"/>
		<path style="fill:#DB4B86;" d="M143.068,202.915c0-36.31,4.922-71.471,14.135-104.851H95.238v223.192h65.951&#10;&#9;&#9;&#9;C149.416,283.907,143.068,244.152,143.068,202.915z"/>
		<path style="fill:#FFFFFF;" d="M286.299,151.778c-20.719,0-28.643,13.02-31.031,18.461c-2.385-5.441-10.252-18.461-30.971-18.461&#10;&#9;&#9;&#9;c-21.071,0-39.607,14.399-39.607,40.693c0,10.64,2.166,18.516,8.178,28.688c12.251,20.73,62.397,46.382,62.397,46.382&#10;&#9;&#9;&#9;s50.161-25.489,62.508-46.382c6.012-10.173,8.163-18.049,8.163-28.688C325.936,166.177,307.37,151.778,286.299,151.778z"/>
		<circle style="fill:#27A2CC;" cx="135.068" cy="408.335" r="32.315"/>
	</g>
	<g>
		<path style="fill:none;stroke:#052A75;stroke-width:20;stroke-linecap:round;stroke-linejoin:round;stroke-miterlimit:10;" d="&#10;&#9;&#9;&#9;M51.238,476.534V35.466C51.238,21.402,62.639,10,76.704,10h358.592c14.065,0,25.466,11.402,25.466,25.466v441.067&#10;&#9;&#9;&#9;c0,14.065-11.402,25.466-25.466,25.466H76.704C62.639,502,51.238,490.598,51.238,476.534z"/>
		
			<rect x="144.404" y="48.897" transform="matrix(-1.836970e-16 1 -1 -1.836970e-16 465.6596 -46.3404)" style="fill:none;stroke:#052A75;stroke-width:20;stroke-linecap:round;stroke-linejoin:round;stroke-miterlimit:10;" width="223.192" height="321.524"/>
		
			<line style="fill:none;stroke:#6864F7;stroke-width:20;stroke-linecap:round;stroke-linejoin:round;stroke-miterlimit:10;" x1="328.745" y1="54" x2="328.745" y2="54"/>
		
			<line style="fill:none;stroke:#6864F7;stroke-width:20;stroke-linecap:round;stroke-linejoin:round;stroke-miterlimit:10;" x1="416.762" y1="54" x2="416.762" y2="54"/>
		
			<line style="fill:none;stroke:#6864F7;stroke-width:20;stroke-linecap:round;stroke-linejoin:round;stroke-miterlimit:10;" x1="372.753" y1="54" x2="372.753" y2="54"/>
		
			<line style="fill:none;stroke:#6864F7;stroke-width:20;stroke-linecap:round;stroke-linejoin:round;stroke-miterlimit:10;" x1="205.681" y1="396.894" x2="270.021" y2="396.894"/>
		
			<line style="fill:none;stroke:#6864F7;stroke-width:20;stroke-linecap:round;stroke-linejoin:round;stroke-miterlimit:10;" x1="205.681" y1="440.65" x2="336.66" y2="440.65"/>
	</g>
</g>
<g>
</g>
<g>
</g>
<g>
</g>
<g>
</g>
<g>
</g>
<g>
</g>
<g>
</g>
<g>
</g>
<g>
</g>
<g>
</g>
<g>
</g>
<g>
</g>
<g>
</g>
<g>
</g>
<g>
</g>
</svg>